<svg xmlns="http://www.w3.org/2000/svg" viewBox="0 0 232.35 325.41"><defs><style>.cls-1,.cls-3{fill:none;}.cls-1{stroke:#f15a24;stroke-linejoin:round;}.cls-2{fill:#f15a24;}.cls-3,.cls-4{stroke:#5cd1ff;stroke-miterlimit:10;}.cls-4{fill:#5cd1ff;}</style></defs><g id="Layer_2" data-name="Layer 2"><g id="Swappy-Hybrid_System" data-name="Swappy-Hybrid System"><polygon class="cls-1" points="0.5 32.24 5.88 35.47 55.91 6.81 61.3 3.73 55.91 0.5 0.5 32.24"/><polygon class="cls-1" points="5.88 35.47 5.88 125.85 23.64 115.4 23.64 98.95 37.62 107.17 37.76 107.1 60.76 93.57 61.3 93.88 61.3 3.73 55.91 6.81 5.88 35.47"/><polygon class="cls-1" points="5.88 131.76 5.88 173.19 41.45 152.27 5.88 131.76"/><polygon class="cls-1" points="5.88 179.11 5.88 220.54 41.45 199.61 5.88 179.11"/><polygon class="cls-1" points="5.88 226.46 5.88 226.47 5.89 226.46 5.88 226.46"/><polygon class="cls-1" points="171.05 130.69 176.43 133.92 226.47 105.26 231.85 102.17 226.47 98.95 171.05 130.69"/><polygon class="cls-1" points="176.43 133.92 176.43 324.91 231.85 293.17 231.85 102.17 226.47 105.26 176.43 133.92"/><polygon class="cls-1" points="0.5 32.24 0.5 223.24 5.88 226.47 5.88 226.46 5.89 226.46 171.05 321.68 176.43 324.91 176.43 133.92 171.05 130.69 171.05 315.76 11.04 223.51 10.96 223.46 5.88 220.54 5.88 35.47 0.5 32.24"/><polygon class="cls-1" points="5.88 220.54 10.96 223.46 11.04 223.51 171.05 315.76 171.05 274.34 47.08 202.86 41.45 199.61 5.88 220.54"/><polygon class="cls-1" points="5.88 173.19 10.96 176.12 46.53 196.63 52.23 199.91 171.05 268.42 171.05 226.99 61.3 163.71 41.45 152.27 5.88 173.19"/><polygon class="cls-1" points="5.88 173.19 5.88 179.11 41.45 199.61 47.08 202.86 171.05 274.34 171.05 268.42 52.23 199.91 46.53 196.63 10.96 176.12 5.88 173.19"/><path class="cls-1" d="M5.88,125.85,11,128.77l35.57,20.51,14.77,8.51,109.75,63.28V157.3L130.7,134v13.38l-5.44,3.13v10.18l-2.15,1.24v7.14L104.21,180l-6.06-3.64v-2.48l-5.92-3.55v-.74l-3.5,2-13.45-8.07V102l-.68-.39,0,0L61.3,93.88l-.54-.31-23,13.53-.14.07,13.45,7.92v31.74L23.63,130.69V115.4ZM100.25,137l17.8-10.28L110,122,92.23,132.14Z"/><polygon class="cls-1" points="5.88 125.85 5.88 131.76 41.45 152.27 61.3 163.71 171.05 226.99 171.05 221.07 61.3 157.79 46.53 149.28 10.96 128.77 5.88 125.85"/><polygon class="cls-2" points="196.56 290.09 196.56 290.09 196.56 290.09 196.56 290.09"/><polygon class="cls-2" points="196.57 296.34 196.57 296.34 196.57 296.35 196.57 296.34"/><polygon class="cls-2" points="206.03 275.07 206.03 275.08 206.02 275.08 206.03 275.07"/><polygon class="cls-2" points="210.09 268.05 210.09 268.06 210.09 268.06 210.09 268.05"/><polygon class="cls-2" points="197.9 286.12 197.9 286.13 197.9 286.12 197.9 286.12 197.9 286.12"/><polygon class="cls-2" points="204.68 283.89 204.68 283.89 204.68 283.88 204.68 283.89"/><polygon class="cls-2" points="210.13 285.58 210.13 285.58 210.13 285.58 210.13 285.59 210.13 285.58"/><path class="cls-2" d="M196.57,296.34l1.34-.75c0-1,0-2,0-3.1l-1.33.76v-3.16l1.35-.76c0-1.08,0-2.14,0-3.21l1.34-.75c0-.54,0-1.07,0-1.62l-1.33.76V282.9l1.34-.77v-1.59l6.79-3.87v-1.59l1.36-.78c0-1.07,0-2.11,0-3.14l1.36-.78c0,1,0,2.07,0,3.12l1.35-.77v-.17c0-1.53,0-3,0-4.5l1.36-.79c0,4.07,0,8.44,0,12.76l4-2.28v1.62l-4,2.27c0,.54,0,1.07,0,1.6l-1.35.76v1.58l-1.34.76v1.57l1.35-.76v3l-2.71,1.52c0-.5,0-1,0-1.49l-6.79,3.83v1.5l2.71-1.53v1.47l-1.36.77c0,.49,0,1,0,1.42l-2.72,1.54v1.39l-1.35.77v-2.83l-4,2.27v-1.47l2.65-1.51Zm5.37-15.72-1.34.76V283l1.35-.76C201.94,281.67,201.94,281.15,201.94,280.62Zm2.77,9.58,1.35-.76c0-.51,0-1,0-1.54l-1.35.76C204.71,289.17,204.71,289.68,204.71,290.2Zm0-6.31c0,1.06,0,2.12,0,3.18l1.36-.77v-1.58l1.36-.77v1.59l2.72-1.54c0-.52,0-1.05,0-1.59l-1.34.76c0-.54,0-1.06,0-1.6l1.34-.76v-3.24l-2.71,1.54V277.5c-1.37.78-2.72,1.56-4.09,2.33,0,1.07,0,2.13,0,3.21l-2.72,1.54v1.62l3.91-2.22Zm-2.71,6.3,1.35-.76v-1.56l-1.35.76Zm-2.7,3.08,2.7-1.53V290.2l-2.7,1.53Zm0-4.72,1.34-.76V286.2l-1.34.76Z"/><path class="cls-2" d="M212.78,260.68c3.13-1.83,6.19-3.66,9.11-5.44v10.61c-2.91,1.73-6,3.51-9.09,5.31C212.8,267.44,212.79,263.87,212.78,260.68Zm1.36,8.12,6.5-3.81c0-2.66,0-5.21,0-7.58-2.11,1.27-4.28,2.57-6.51,3.88C214.13,263.63,214.13,266.17,214.14,268.8Z"/><path class="cls-2" d="M203.26,266.19c0,3.19,0,6.75,0,10.44L193.92,282V271.48C197,269.78,200.09,268,203.26,266.19Zm-8,13.45,6.7-3.81c0-2.61,0-5.13,0-7.47l-6.68,3.79Z"/><path class="cls-2" d="M221.89,288c-2.89,1.59-5.93,3.28-9,5,0-3.19,0-6.77,0-10.48l9.06-5.14Zm-1.25-8.29-6.48,3.66c0,2.63,0,5.16,0,7.51l6.46-3.59Z"/><polygon class="cls-2" points="210.09 268.05 210.09 268.06 210.09 268.06 210.09 268.05"/><path class="cls-2" d="M208.72,267.35l-1.35.78v1.5l-1.36.78v1.52l-1.35.78c0-1,0-2,0-3l1.35-.77c0-.5,0-1,0-1.47l-1.34.77c0-1,0-1.9,0-2.8,2.27-1.31,4.54-2.62,6.78-3.93,0,.91,0,1.85,0,2.82l-1.35.78c0,1,0,2,0,3l-1.36.78C208.73,268.33,208.72,267.83,208.72,267.35Zm0-2.91-1.35.78v1.42l1.35-.78Z"/><path class="cls-2" d="M221.89,272.43v3.27l-5.1,2.91c0-1.08,0-2.15,0-3.25l-4,2.27V276l2.66-1.53v-1.62l2.61-1.51v4.89l2.57-1.47v-1.62Z"/><polygon class="cls-2" points="215.47 272.86 215.47 272.86 215.46 272.87 215.47 272.86"/><polygon class="cls-2" points="218.08 271.35 218.08 271.35 218.08 271.35 218.08 271.35"/><polygon class="cls-2" points="210.15 290.19 210.14 290.19 210.15 290.19 210.14 290.19 210.14 290.19 210.15 290.18 210.15 290.19"/><path class="cls-2" d="M211.5,293.72,207.45,296V294.6l1.35-.76v-1.43l1.35-.76v-1.46l1.33-.75C211.49,290.94,211.49,292.37,211.5,293.72Z"/><polygon class="cls-2" points="218.08 271.35 218.08 271.35 218.08 271.35 218.08 271.35"/><path class="cls-2" d="M221.89,267.5v3.27l-1.25.72v-1.63l-2.56,1.48v-1.61Z"/><path class="cls-2" d="M193.92,283.57l2.63-1.49v1.58l-1.33.76c0,1.08,0,2.14,0,3.21l-1.31.74Z"/><path class="cls-2" d="M212.81,272.79l2.65-1.54v1.61l-2.65,1.53Z"/><polygon class="cls-2" points="215.47 272.86 215.46 272.87 215.46 272.86 215.47 272.86"/><polygon class="cls-2" points="196.56 290.09 196.56 290.09 196.56 290.09 196.56 290.09"/><path class="cls-2" d="M195.24,289.25l1.32-.75v1.59l-1.32.75Z"/><path class="cls-2" d="M193.92,294.75v-1.56l1.31-.74V294Z"/><path class="cls-2" d="M196.57,286.87v-1.6l1.32-.75v1.6Z"/><polygon class="cls-2" points="197.89 284.51 197.89 284.51 197.9 284.51 197.9 284.51 197.89 284.51"/><path class="cls-2" d="M211.47,284.83c0,.53,0,1,0,1.56l-1.34.75v-1.55Z"/><polygon class="cls-2" points="210.14 287.14 210.14 287.15 210.14 287.15 210.14 287.14 210.14 287.14"/><polygon class="cls-2" points="196.57 296.34 196.57 296.35 196.57 296.34 196.57 296.34"/><path class="cls-2" d="M195.24,295.57l1.33-.75v1.52l-1.33.75Z"/><path class="cls-2" d="M204.66,274.29l1.36-.78v1.57l-1.35.77C204.67,275.32,204.67,274.8,204.66,274.29Z"/><polygon class="cls-2" points="206.03 275.07 206.02 275.08 206.02 275.08 206.03 275.07"/><path class="cls-2" d="M206.07,295.37l-1.35.76v-1.41l1.35-.76Z"/><polygon class="cls-2" points="201.99 297.69 201.99 297.69 201.99 297.69 201.99 297.69 201.99 297.69 201.99 297.68 201.99 297.69"/><path class="cls-2" d="M203.35,298.3l-1.35.77c0-.46,0-.92,0-1.38l1.36-.77Z"/><path class="cls-2" d="M195.23,302.91l-1.31.75v-1.39l1.31-.75Z"/><path class="cls-2" d="M206,281.51c0,.54,0,1.07,0,1.6l-1.36.77v-1.6Z"/><polygon class="cls-2" points="204.68 283.89 204.68 283.88 204.68 283.88 204.68 283.89"/><path class="cls-2" d="M215.45,261.94l3.9-2.32c0,1.47,0,3,0,4.54l-3.9,2.3C215.46,264.9,215.46,263.39,215.45,261.94Z"/><path class="cls-2" d="M196.55,272.84l4-2.28c0,1.45,0,2.95,0,4.49l-4,2.28Z"/><path class="cls-2" d="M219.37,286.5l-3.87,2.16c0-1.46,0-3,0-4.52l3.88-2.18Z"/><path class="cls-3" d="M199.83,202a1.41,1.41,0,0,0,0,.28l0-.4A.45.45,0,0,0,199.83,202Z"/><polygon class="cls-3" points="75.28 101.16 75.28 163.51 88.73 171.58 88.73 107.55 79.05 101.74 76.7 100.33 76.69 100.33 75.28 101.16"/><polygon class="cls-3" points="76.7 100.33 76.69 100.33 79.05 101.74 76.7 100.33"/><polygon class="cls-3" points="75.28 99.48 75.28 101.16 76.69 100.33 76.67 100.32 75.28 99.48"/><polygon class="cls-3" points="88.73 107.55 88.73 171.58 92.23 169.56 92.23 132.14 109.96 122 116.93 118.02 125.26 122.52 125.26 150.5 130.7 147.37 130.7 83.34 88.73 107.55"/><polygon class="cls-3" points="92.23 132.14 100.25 136.95 118.05 126.67 125.26 122.52 116.93 118.02 109.96 122 92.23 132.14"/><polygon class="cls-4" points="75.28 99.48 76.67 100.32 76.69 100.33 76.7 100.33 79.05 101.74 88.73 107.55 130.7 83.34 116.71 75.81 77.62 98.15 75.28 99.48"/><polygon class="cls-3" points="97.49 198.74 80.04 188.81 80.04 209 97.49 218.92 97.49 198.74"/><polygon class="cls-4" points="88.93 183.68 80.04 188.81 97.49 198.74 106.04 193.6 88.93 183.68"/><polygon class="cls-3" points="106.04 214.13 97.49 218.92 97.49 198.74 106.04 193.6 106.04 214.13"/><polygon class="cls-4" points="23.64 98.95 37.76 107.1 51.34 114.93 51.61 115.09 74.59 101.57 75.28 101.16 76.69 100.33 76.7 100.33 79.05 98.95 77.62 98.15 61.3 89.05 51.07 83.34 23.64 98.95"/><polygon class="cls-3" points="23.64 98.95 23.64 130.69 51.07 146.83 51.07 115.09 37.62 107.17 23.64 98.95"/><polygon class="cls-3" points="51.07 115.09 51.07 146.83 75.28 132.86 75.28 101.16 76.69 100.33 76.7 100.33 79.05 101.74 79.05 98.95 76.67 100.32 75.28 101.12 74.55 101.54 51.34 114.93 51.07 115.09"/><polygon class="cls-4" points="159.75 223.76 145.76 231.84 132.31 223.76 145.76 215.69 159.75 223.76"/><polygon class="cls-3" points="145.76 247.44 132.31 239.91 132.31 223.76 145.76 231.84 145.76 247.44"/><polygon class="cls-3" points="159.75 239.91 145.76 247.44 145.76 231.84 159.75 223.76 159.75 239.91"/><polygon class="cls-3" points="92.23 132.14 92.23 170.3 98.15 173.85 98.15 147.5 100.25 146.3 100.25 136.95 92.23 132.14"/><polygon class="cls-3" points="100.25 136.95 100.25 146.3 116.81 136.83 123.11 140.23 123.11 161.92 125.26 160.68 125.26 122.52 118.05 126.67 100.25 136.95"/><polygon class="cls-4" points="92.23 132.14 100.25 136.95 118.05 126.67 125.26 122.52 116.93 118.02 109.96 122 92.23 132.14"/><polygon class="cls-3" points="98.15 147.5 98.15 176.33 104.21 179.97 104.21 151.13 100.25 148.75 98.15 147.5"/><polygon class="cls-3" points="104.21 151.13 104.21 179.97 123.11 169.06 123.11 140.23 104.21 151.13"/><polygon class="cls-4" points="98.15 147.5 100.25 148.75 104.21 151.13 123.11 140.23 116.81 136.83 100.25 146.3 98.15 147.5"/><path class="cls-2" d="M142.13,223.89a1,1,0,0,0,.25.62,6,6,0,0,0,7,0,1,1,0,0,0,.24-.62c0-1-1.67-1.75-3.74-1.75S142.13,222.92,142.13,223.89Z"/><path class="cls-2" d="M92.64,194.3a1,1,0,0,0,.24.62,6,6,0,0,0,7,0,1,1,0,0,0,.25-.62c0-1-1.68-1.75-3.75-1.75S92.64,193.33,92.64,194.3Z"/><path class="cls-2" d="M100.71,147.49a1,1,0,0,0,.24.62,6,6,0,0,0,7,0,1,1,0,0,0,.25-.62c0-1-1.68-1.75-3.75-1.75S100.71,146.53,100.71,147.49Z"/><path class="cls-2" d="M96.4,131.89a1,1,0,0,0,.25.62,6,6,0,0,0,7,0,.91.91,0,0,0,.25-.62c0-1-1.67-1.75-3.74-1.75S96.4,130.92,96.4,131.89Z"/><path class="cls-2" d="M83.49,100.14a1,1,0,0,0,.25.63,6,6,0,0,0,7,0,1,1,0,0,0,.25-.63c0-1-1.67-1.74-3.75-1.74S83.49,99.18,83.49,100.14Z"/><path class="cls-2" d="M56.05,102.3a1,1,0,0,0,.25.62,4.75,4.75,0,0,0,3.5,1.13,4.74,4.74,0,0,0,3.49-1.13,1,1,0,0,0,.25-.62c0-1-1.67-1.75-3.74-1.75S56.05,101.33,56.05,102.3Z"/></g></g></svg>