<svg xmlns="http://www.w3.org/2000/svg" viewBox="0 0 232.35 325.41"><defs><style>.cls-1,.cls-3{fill:none;}.cls-1{stroke:#f0f;stroke-linejoin:round;}.cls-2{fill:#f0f;}.cls-3,.cls-4{stroke:#5cd1ff;stroke-miterlimit:10;}.cls-4{fill:#5cd1ff;}</style></defs><g id="Layer_2" data-name="Layer 2"><g id="Swappy-Hybrid_System" data-name="Swappy-Hybrid System"><polygon class="cls-1" points="231.85 32.24 226.47 35.47 176.43 6.81 171.05 3.73 176.43 0.5 231.85 32.24"/><polygon class="cls-1" points="226.47 35.47 226.47 125.85 208.71 115.4 208.71 98.95 194.72 107.17 194.59 107.1 171.59 93.57 171.05 93.88 171.05 3.73 176.43 6.81 226.47 35.47"/><polygon class="cls-1" points="226.47 131.76 226.47 173.19 190.9 152.27 226.47 131.76"/><polygon class="cls-1" points="226.47 179.11 226.47 220.54 190.9 199.61 226.47 179.11"/><polygon class="cls-1" points="226.47 226.46 226.47 226.47 226.46 226.46 226.47 226.46"/><polygon class="cls-1" points="61.3 130.69 55.91 133.92 5.88 105.26 0.5 102.17 5.88 98.95 61.3 130.69"/><polygon class="cls-1" points="55.91 133.92 55.91 324.91 0.5 293.17 0.5 102.17 5.88 105.26 55.91 133.92"/><polygon class="cls-1" points="231.85 32.24 231.85 223.24 226.47 226.47 226.47 226.46 226.46 226.46 61.3 321.68 55.91 324.91 55.91 133.92 61.3 130.69 61.3 315.76 221.31 223.51 221.39 223.46 226.47 220.54 226.47 35.47 231.85 32.24"/><polygon class="cls-1" points="226.47 220.54 221.39 223.46 221.31 223.51 61.3 315.76 61.3 274.34 185.26 202.86 190.9 199.61 226.47 220.54"/><polygon class="cls-1" points="226.47 173.19 221.39 176.12 185.82 196.63 180.12 199.91 61.3 268.42 61.3 226.99 171.05 163.71 190.9 152.27 226.47 173.19"/><polygon class="cls-1" points="226.47 173.19 226.47 179.11 190.9 199.61 185.26 202.86 61.3 274.34 61.3 268.42 180.12 199.91 185.82 196.63 221.39 176.12 226.47 173.19"/><path class="cls-1" d="M208.71,115.4v15.29l-27.44,16.14V115.09l13.45-7.92-.13-.07-23-13.53-.54.31-13.26,7.66,0,0-.69.39v61.55l-13.45,8.07-3.5-2v.74l-5.91,3.55v2.48L128.14,180l-18.9-10.91v-7.14l-2.15-1.24V150.5l-5.44-3.13V134L61.3,157.3v63.77l109.75-63.28,14.77-8.51,35.57-20.51,5.08-2.92Zm-68.6,16.74L122.38,122l-8.08,4.67L132.1,137Z"/><polygon class="cls-1" points="226.47 125.85 226.47 131.76 190.9 152.27 171.05 163.71 61.3 226.99 61.3 221.07 171.05 157.79 185.82 149.28 221.39 128.77 226.47 125.85"/><polygon class="cls-2" points="35.78 290.09 35.78 290.09 35.78 290.09 35.78 290.09"/><polygon class="cls-2" points="35.77 296.34 35.77 296.34 35.78 296.35 35.77 296.34"/><polygon class="cls-2" points="26.32 275.07 26.32 275.08 26.32 275.08 26.32 275.07"/><polygon class="cls-2" points="22.25 268.05 22.25 268.06 22.26 268.06 22.25 268.05"/><polygon class="cls-2" points="34.45 286.12 34.45 286.13 34.45 286.12 34.45 286.12 34.45 286.12"/><polygon class="cls-2" points="27.66 283.89 27.66 283.89 27.66 283.88 27.66 283.89"/><polygon class="cls-2" points="22.21 285.58 22.21 285.58 22.21 285.58 22.21 285.59 22.21 285.58"/><path class="cls-2" d="M35.77,296.34l-1.33-.75v-3.1l1.34.76v-3.16l-1.34-.76c0-1.08,0-2.14,0-3.21l-1.34-.75v-1.62l1.34.76V282.9l-1.35-.77c0-.54,0-1.06,0-1.59l-6.79-3.87v-1.59L25,274.3c0-1.08,0-2.11,0-3.14l-1.35-.78c0,1,0,2.07,0,3.12l-1.36-.77v-.17c0-1.53,0-3,0-4.5l-1.35-.79c0,4.07,0,8.44,0,12.76l-4-2.28v1.62l4,2.27v1.6l1.34.76v1.58l1.35.76v1.57c-.44-.26-.89-.51-1.34-.76,0,1,0,2,0,3l2.72,1.52v-1.49l6.8,3.83v1.5L29,294c0,.5,0,1,0,1.47l1.36.77v1.42c.9.52,1.81,1,2.72,1.54v1.39l1.35.77c0-.92,0-1.85,0-2.83l4,2.27v-1.47l-2.66-1.51ZM30.4,280.62l1.35.76V283l-1.34-.76Zm-2.76,9.58-1.35-.76V287.9l1.35.76Zm0-6.31c0,1.06,0,2.12,0,3.18l-1.37-.77v-1.58L24.94,284v1.59L22.22,284v-1.59l1.35.76v-1.6l-1.34-.76v-3.24l2.7,1.54V277.5L29,279.83V283l2.72,1.54v1.62L27.83,284Zm2.7,6.3L29,289.43c0-.52,0-1,0-1.56l1.35.76C30.38,289.15,30.37,289.68,30.37,290.19Zm2.71,3.08-2.71-1.53c0-.51,0-1,0-1.54l2.7,1.53Zm0-4.72-1.35-.76V286.2l1.34.76Z"/><path class="cls-2" d="M19.57,260.68c-3.13-1.83-6.2-3.66-9.11-5.44v10.61c2.91,1.73,6,3.51,9.08,5.31C19.55,267.44,19.56,263.87,19.57,260.68Zm-1.36,8.12c-2.21-1.29-4.39-2.56-6.5-3.81v-7.58c2.11,1.27,4.29,2.57,6.51,3.88C18.22,263.63,18.21,266.17,18.21,268.8Z"/><path class="cls-2" d="M29.08,266.19c0,3.19,0,6.75,0,10.44L38.43,282V271.48C35.4,269.78,32.26,268,29.08,266.19Zm8,13.45-6.69-3.81c0-2.61,0-5.13,0-7.47l6.68,3.79C37.12,274.5,37.11,277,37.11,279.64Z"/><path class="cls-2" d="M10.45,288c2.9,1.59,5.94,3.28,9,5,0-3.19,0-6.77,0-10.48l-9.07-5.14Zm1.26-8.29,6.47,3.66c0,2.63,0,5.16,0,7.51l-6.46-3.59Z"/><polygon class="cls-2" points="22.25 268.05 22.26 268.06 22.26 268.06 22.25 268.05"/><path class="cls-2" d="M23.62,267.35l1.36.78v1.5l1.36.78c0,.51,0,1,0,1.52l1.36.78c0-1,0-2,0-3l-1.35-.77v-1.47l1.35.77c0-1,0-1.9,0-2.8l-6.79-3.93v2.82l1.35.78c0,1,0,2,0,3l1.36.78Zm0-2.91,1.35.78c0,.46,0,.93,0,1.42l-1.34-.78Z"/><path class="cls-2" d="M10.46,272.43v3.27l5.1,2.91v-3.25l4,2.27V276l-2.65-1.53v-1.62l-2.61-1.51c0,1.63,0,3.27,0,4.89l-2.56-1.47v-1.62Z"/><polygon class="cls-2" points="16.88 272.86 16.88 272.86 16.88 272.87 16.88 272.86"/><polygon class="cls-2" points="14.26 271.35 14.27 271.35 14.27 271.35 14.26 271.35"/><polygon class="cls-2" points="22.2 290.19 22.2 290.19 22.2 290.19 22.2 290.19 22.2 290.19 22.2 290.18 22.2 290.19"/><path class="cls-2" d="M20.85,293.72l4,2.27c0-.45,0-.91,0-1.39l-1.36-.76c0-.47,0-.94,0-1.43l-1.35-.76v-1.46l-1.34-.75C20.86,290.94,20.85,292.37,20.85,293.72Z"/><polygon class="cls-2" points="14.26 271.35 14.27 271.35 14.26 271.35 14.26 271.35"/><path class="cls-2" d="M10.46,267.5v3.27l1.25.72v-1.63l2.55,1.48v-1.61Z"/><path class="cls-2" d="M38.43,283.57l-2.63-1.49v1.58l1.32.76v3.21l1.31.74Z"/><path class="cls-2" d="M19.54,272.79l-2.66-1.54v1.61l2.65,1.53Z"/><polygon class="cls-2" points="16.88 272.86 16.88 272.87 16.88 272.86 16.88 272.86"/><polygon class="cls-2" points="35.78 290.09 35.78 290.09 35.78 290.09 35.78 290.09"/><path class="cls-2" d="M37.11,289.25l-1.32-.75v1.59l1.33.75Z"/><path class="cls-2" d="M38.43,294.75v-1.56l-1.31-.74V294Z"/><path class="cls-2" d="M35.78,286.87v-1.6l-1.33-.75v1.6Z"/><polygon class="cls-2" points="34.45 284.51 34.45 284.51 34.45 284.51 34.45 284.51 34.45 284.51"/><path class="cls-2" d="M20.87,284.83v1.56l1.34.75v-1.55Z"/><polygon class="cls-2" points="22.21 287.14 22.21 287.15 22.21 287.15 22.21 287.14 22.21 287.14"/><polygon class="cls-2" points="35.77 296.34 35.78 296.35 35.78 296.34 35.77 296.34"/><path class="cls-2" d="M37.1,295.57l-1.32-.75v1.52l1.32.75Z"/><path class="cls-2" d="M27.68,274.29c-.45-.27-.9-.52-1.35-.78,0,.53,0,1,0,1.57l1.36.77Z"/><polygon class="cls-2" points="26.32 275.07 26.32 275.08 26.32 275.08 26.32 275.07"/><path class="cls-2" d="M26.27,295.37l1.35.76c0-.47,0-.93,0-1.41L26.28,294C26.28,294.44,26.27,294.91,26.27,295.37Z"/><polygon class="cls-2" points="30.35 297.69 30.36 297.69 30.36 297.69 30.36 297.69 30.36 297.69 30.35 297.68 30.35 297.69"/><path class="cls-2" d="M29,298.3l1.35.77v-1.38L29,296.92Z"/><path class="cls-2" d="M37.11,302.91l1.32.75v-1.39l-1.32-.75Z"/><path class="cls-2" d="M26.31,281.51v1.6l1.35.77v-1.6Z"/><polygon class="cls-2" points="27.66 283.89 27.66 283.88 27.66 283.88 27.66 283.89"/><path class="cls-2" d="M16.89,261.94,13,259.62v4.54l3.9,2.3Z"/><path class="cls-2" d="M35.8,272.84l-4-2.28c0,1.45,0,2.95,0,4.49l4,2.28C35.79,275.78,35.8,274.29,35.8,272.84Z"/><path class="cls-2" d="M13,286.5l3.88,2.16c0-1.46,0-3,0-4.52L13,282Z"/><path class="cls-3" d="M32.51,202a.92.92,0,0,1,0,.28l0-.4Z"/><polygon class="cls-3" points="157.06 101.16 157.06 163.51 143.61 171.58 143.61 107.55 153.3 101.74 155.65 100.33 155.65 100.33 157.06 101.16"/><polygon class="cls-3" points="155.65 100.33 155.65 100.33 153.3 101.74 155.65 100.33"/><polygon class="cls-3" points="157.06 99.48 157.06 101.16 155.65 100.33 155.67 100.32 157.06 99.48"/><polygon class="cls-3" points="143.61 107.55 143.61 171.58 140.11 169.56 140.11 132.14 122.38 122 115.42 118.02 107.09 122.52 107.09 150.5 101.65 147.37 101.65 83.34 143.61 107.55"/><polygon class="cls-3" points="140.11 132.14 132.1 136.95 114.3 126.67 107.09 122.52 115.42 118.02 122.38 122 140.11 132.14"/><polygon class="cls-4" points="157.06 99.48 155.67 100.32 155.65 100.33 155.65 100.33 153.3 101.74 143.61 107.55 101.65 83.34 115.64 75.81 154.73 98.15 157.06 99.48"/><polygon class="cls-3" points="134.86 198.74 152.31 188.81 152.31 209 134.86 218.92 134.86 198.74"/><polygon class="cls-4" points="143.41 183.68 152.31 188.81 134.86 198.74 126.31 193.6 143.41 183.68"/><polygon class="cls-3" points="126.31 214.13 134.86 218.92 134.86 198.74 126.31 193.6 126.31 214.13"/><polygon class="cls-4" points="208.71 98.95 194.59 107.1 181 114.93 180.74 115.09 157.75 101.57 157.06 101.16 155.65 100.33 155.65 100.33 153.3 98.95 154.73 98.15 171.05 89.05 181.27 83.34 208.71 98.95"/><polygon class="cls-3" points="208.71 98.95 208.71 130.69 181.27 146.83 181.27 115.09 194.72 107.17 208.71 98.95"/><polygon class="cls-3" points="181.27 115.09 181.27 146.83 157.06 132.86 157.06 101.16 155.65 100.33 155.65 100.33 153.3 101.74 153.3 98.95 155.67 100.32 157.06 101.12 157.79 101.54 181 114.93 181.27 115.09"/><polygon class="cls-4" points="72.59 223.76 86.58 231.84 100.03 223.76 86.58 215.69 72.59 223.76"/><polygon class="cls-3" points="86.58 247.44 100.03 239.91 100.03 223.76 86.58 231.84 86.58 247.44"/><polygon class="cls-3" points="72.59 239.91 86.58 247.44 86.58 231.84 72.59 223.76 72.59 239.91"/><polygon class="cls-3" points="140.11 132.14 140.11 170.3 134.2 173.85 134.2 147.5 132.1 146.3 132.1 136.95 140.11 132.14"/><polygon class="cls-3" points="132.1 136.95 132.1 146.3 115.54 136.83 109.24 140.23 109.24 161.92 107.09 160.68 107.09 122.52 114.3 126.67 132.1 136.95"/><polygon class="cls-4" points="140.11 132.14 132.1 136.95 114.3 126.67 107.09 122.52 115.42 118.02 122.38 122 140.11 132.14"/><polygon class="cls-3" points="134.2 147.5 134.2 176.33 128.14 179.97 128.14 151.13 132.1 148.75 134.2 147.5"/><polygon class="cls-3" points="128.14 151.13 128.14 179.97 109.24 169.06 109.24 140.23 128.14 151.13"/><polygon class="cls-4" points="134.2 147.5 132.1 148.75 128.14 151.13 109.24 140.23 115.54 136.83 132.1 146.3 134.2 147.5"/><path class="cls-2" d="M90.21,223.89a.91.91,0,0,1-.25.62,6,6,0,0,1-7,0,1,1,0,0,1-.25-.62c0-1,1.68-1.75,3.75-1.75S90.21,222.92,90.21,223.89Z"/><path class="cls-2" d="M139.71,194.3a1,1,0,0,1-.25.62,6,6,0,0,1-7,0,1,1,0,0,1-.25-.62c0-1,1.67-1.75,3.74-1.75S139.71,193.33,139.71,194.3Z"/><path class="cls-2" d="M131.64,147.49a1,1,0,0,1-.25.62,6,6,0,0,1-7,0,1,1,0,0,1-.25-.62c0-1,1.67-1.75,3.74-1.75S131.64,146.53,131.64,147.49Z"/><path class="cls-2" d="M135.94,131.89a1,1,0,0,1-.24.62,6,6,0,0,1-7,0,1,1,0,0,1-.25-.62c0-1,1.68-1.75,3.75-1.75S135.94,130.92,135.94,131.89Z"/><path class="cls-2" d="M148.86,100.14a1,1,0,0,1-.25.63,6,6,0,0,1-7,0,1,1,0,0,1-.24-.63c0-1,1.67-1.74,3.74-1.74S148.86,99.18,148.86,100.14Z"/><path class="cls-2" d="M176.29,102.3a1,1,0,0,1-.24.62,6,6,0,0,1-7,0,1,1,0,0,1-.24-.62c0-1,1.67-1.75,3.74-1.75S176.29,101.33,176.29,102.3Z"/></g></g></svg>